<mxfile host="app.diagrams.net" modified="2023-12-13T14:54:53.259Z" agent="Mozilla/5.0 (Windows NT 10.0; Win64; x64) AppleWebKit/537.36 (KHTML, like Gecko) Chrome/120.0.0.0 Safari/537.36" etag="K0rWHd1SQ6Nlz9R7-Rfi" version="22.1.7" type="github">
  <diagram name="Page-1" id="HmCwzGc2Vi443LyVnyoT">
    <mxGraphModel dx="2100" dy="1068" grid="1" gridSize="10" guides="1" tooltips="1" connect="1" arrows="1" fold="1" page="1" pageScale="1" pageWidth="827" pageHeight="1169" math="0" shadow="0">
      <root>
        <mxCell id="0" />
        <mxCell id="1" parent="0" />
        <mxCell id="-H8RL6CBI1qy7asT4wwA-1" value="Location" style="swimlane;fontStyle=1;align=center;verticalAlign=top;childLayout=stackLayout;horizontal=1;startSize=26;horizontalStack=0;resizeParent=1;resizeParentMax=0;resizeLast=0;collapsible=1;marginBottom=0;whiteSpace=wrap;html=1;" vertex="1" parent="1">
          <mxGeometry x="500" y="480" width="210" height="140" as="geometry" />
        </mxCell>
        <mxCell id="-H8RL6CBI1qy7asT4wwA-2" value="- x: int&lt;br&gt;- y: int&lt;br&gt;- direction: DIRECTION" style="text;strokeColor=none;fillColor=none;align=left;verticalAlign=top;spacingLeft=4;spacingRight=4;overflow=hidden;rotatable=0;points=[[0,0.5],[1,0.5]];portConstraint=eastwest;whiteSpace=wrap;html=1;" vertex="1" parent="-H8RL6CBI1qy7asT4wwA-1">
          <mxGeometry y="26" width="210" height="54" as="geometry" />
        </mxCell>
        <mxCell id="-H8RL6CBI1qy7asT4wwA-3" value="" style="line;strokeWidth=1;fillColor=none;align=left;verticalAlign=middle;spacingTop=-1;spacingLeft=3;spacingRight=3;rotatable=0;labelPosition=right;points=[];portConstraint=eastwest;strokeColor=inherit;" vertex="1" parent="-H8RL6CBI1qy7asT4wwA-1">
          <mxGeometry y="80" width="210" height="8" as="geometry" />
        </mxCell>
        <mxCell id="-H8RL6CBI1qy7asT4wwA-4" value="+ getInt(): int&lt;br&gt;+ getDirection(): DIRECTION" style="text;strokeColor=none;fillColor=none;align=left;verticalAlign=top;spacingLeft=4;spacingRight=4;overflow=hidden;rotatable=0;points=[[0,0.5],[1,0.5]];portConstraint=eastwest;whiteSpace=wrap;html=1;" vertex="1" parent="-H8RL6CBI1qy7asT4wwA-1">
          <mxGeometry y="88" width="210" height="52" as="geometry" />
        </mxCell>
        <mxCell id="-H8RL6CBI1qy7asT4wwA-5" value="HorizontalPlacementStrategy" style="swimlane;fontStyle=1;align=center;verticalAlign=top;childLayout=stackLayout;horizontal=1;startSize=26;horizontalStack=0;resizeParent=1;resizeParentMax=0;resizeLast=0;collapsible=1;marginBottom=0;whiteSpace=wrap;html=1;" vertex="1" parent="1">
          <mxGeometry x="80" y="260" width="290" height="78" as="geometry" />
        </mxCell>
        <mxCell id="-H8RL6CBI1qy7asT4wwA-6" value="+ determineDirection(x: int,&amp;nbsp;y: int, userInput: String):&lt;br&gt; Location.DIRECTION" style="text;strokeColor=none;fillColor=none;align=left;verticalAlign=top;spacingLeft=4;spacingRight=4;overflow=hidden;rotatable=0;points=[[0,0.5],[1,0.5]];portConstraint=eastwest;whiteSpace=wrap;html=1;" vertex="1" parent="-H8RL6CBI1qy7asT4wwA-5">
          <mxGeometry y="26" width="290" height="44" as="geometry" />
        </mxCell>
        <mxCell id="-H8RL6CBI1qy7asT4wwA-7" value="" style="line;strokeWidth=1;fillColor=none;align=left;verticalAlign=middle;spacingTop=-1;spacingLeft=3;spacingRight=3;rotatable=0;labelPosition=right;points=[];portConstraint=eastwest;strokeColor=inherit;" vertex="1" parent="-H8RL6CBI1qy7asT4wwA-5">
          <mxGeometry y="70" width="290" height="8" as="geometry" />
        </mxCell>
        <mxCell id="-H8RL6CBI1qy7asT4wwA-9" value="VerticalPlacementStrategy" style="swimlane;fontStyle=1;align=center;verticalAlign=top;childLayout=stackLayout;horizontal=1;startSize=26;horizontalStack=0;resizeParent=1;resizeParentMax=0;resizeLast=0;collapsible=1;marginBottom=0;whiteSpace=wrap;html=1;" vertex="1" parent="1">
          <mxGeometry x="480" y="260" width="300" height="78" as="geometry" />
        </mxCell>
        <mxCell id="-H8RL6CBI1qy7asT4wwA-10" value="+ determineDirection(x: int,&amp;nbsp;y: int, userInput: String):&lt;br style=&quot;border-color: var(--border-color);&quot;&gt;Location.DIRECTION" style="text;strokeColor=none;fillColor=none;align=left;verticalAlign=top;spacingLeft=4;spacingRight=4;overflow=hidden;rotatable=0;points=[[0,0.5],[1,0.5]];portConstraint=eastwest;whiteSpace=wrap;html=1;" vertex="1" parent="-H8RL6CBI1qy7asT4wwA-9">
          <mxGeometry y="26" width="300" height="44" as="geometry" />
        </mxCell>
        <mxCell id="-H8RL6CBI1qy7asT4wwA-11" value="" style="line;strokeWidth=1;fillColor=none;align=left;verticalAlign=middle;spacingTop=-1;spacingLeft=3;spacingRight=3;rotatable=0;labelPosition=right;points=[];portConstraint=eastwest;strokeColor=inherit;" vertex="1" parent="-H8RL6CBI1qy7asT4wwA-9">
          <mxGeometry y="70" width="300" height="8" as="geometry" />
        </mxCell>
        <mxCell id="-H8RL6CBI1qy7asT4wwA-13" value="DominoPlacementStrategy" style="swimlane;fontStyle=1;align=center;verticalAlign=top;childLayout=stackLayout;horizontal=1;startSize=26;horizontalStack=0;resizeParent=1;resizeParentMax=0;resizeLast=0;collapsible=1;marginBottom=0;whiteSpace=wrap;html=1;" vertex="1" parent="1">
          <mxGeometry x="210" y="40" width="500" height="110" as="geometry" />
        </mxCell>
        <mxCell id="-H8RL6CBI1qy7asT4wwA-14" value="- strategy: DominoPlacementDirectionStrategy" style="text;strokeColor=none;fillColor=none;align=left;verticalAlign=top;spacingLeft=4;spacingRight=4;overflow=hidden;rotatable=0;points=[[0,0.5],[1,0.5]];portConstraint=eastwest;whiteSpace=wrap;html=1;" vertex="1" parent="-H8RL6CBI1qy7asT4wwA-13">
          <mxGeometry y="26" width="500" height="26" as="geometry" />
        </mxCell>
        <mxCell id="-H8RL6CBI1qy7asT4wwA-15" value="" style="line;strokeWidth=1;fillColor=none;align=left;verticalAlign=middle;spacingTop=-1;spacingLeft=3;spacingRight=3;rotatable=0;labelPosition=right;points=[];portConstraint=eastwest;strokeColor=inherit;" vertex="1" parent="-H8RL6CBI1qy7asT4wwA-13">
          <mxGeometry y="52" width="500" height="8" as="geometry" />
        </mxCell>
        <mxCell id="-H8RL6CBI1qy7asT4wwA-16" value="+ setPlacementStrategy(strategy: DominoPlacementDirectionStrategy): void&lt;br&gt;+ determinePlacementDirection(x: int, y: int, userInput: String): Location.DIRECTION" style="text;strokeColor=none;fillColor=none;align=left;verticalAlign=top;spacingLeft=4;spacingRight=4;overflow=hidden;rotatable=0;points=[[0,0.5],[1,0.5]];portConstraint=eastwest;whiteSpace=wrap;html=1;" vertex="1" parent="-H8RL6CBI1qy7asT4wwA-13">
          <mxGeometry y="60" width="500" height="50" as="geometry" />
        </mxCell>
        <mxCell id="-H8RL6CBI1qy7asT4wwA-17" value="Domino" style="swimlane;fontStyle=1;align=center;verticalAlign=top;childLayout=stackLayout;horizontal=1;startSize=26;horizontalStack=0;resizeParent=1;resizeParentMax=0;resizeLast=0;collapsible=1;marginBottom=0;whiteSpace=wrap;html=1;" vertex="1" parent="1">
          <mxGeometry x="80" y="480" width="240" height="260" as="geometry" />
        </mxCell>
        <mxCell id="-H8RL6CBI1qy7asT4wwA-18" value="- high: int&lt;br&gt;- low: int&lt;br&gt;- hx: int&lt;br&gt;- hy: int&lt;br&gt;- lx: int&lt;br&gt;- ly: int&lt;br&gt;- placed: boolean" style="text;strokeColor=none;fillColor=none;align=left;verticalAlign=top;spacingLeft=4;spacingRight=4;overflow=hidden;rotatable=0;points=[[0,0.5],[1,0.5]];portConstraint=eastwest;whiteSpace=wrap;html=1;" vertex="1" parent="-H8RL6CBI1qy7asT4wwA-17">
          <mxGeometry y="26" width="240" height="124" as="geometry" />
        </mxCell>
        <mxCell id="-H8RL6CBI1qy7asT4wwA-19" value="" style="line;strokeWidth=1;fillColor=none;align=left;verticalAlign=middle;spacingTop=-1;spacingLeft=3;spacingRight=3;rotatable=0;labelPosition=right;points=[];portConstraint=eastwest;strokeColor=inherit;" vertex="1" parent="-H8RL6CBI1qy7asT4wwA-17">
          <mxGeometry y="150" width="240" height="8" as="geometry" />
        </mxCell>
        <mxCell id="-H8RL6CBI1qy7asT4wwA-20" value="+ place(hx, hy, lx, ly): void&lt;br&gt;+ toString(): String&lt;br&gt;+ invert(): void&lt;br&gt;+ ishl(): boolean&lt;br&gt;+ compareTo(Domino): int" style="text;strokeColor=none;fillColor=none;align=left;verticalAlign=top;spacingLeft=4;spacingRight=4;overflow=hidden;rotatable=0;points=[[0,0.5],[1,0.5]];portConstraint=eastwest;whiteSpace=wrap;html=1;" vertex="1" parent="-H8RL6CBI1qy7asT4wwA-17">
          <mxGeometry y="158" width="240" height="102" as="geometry" />
        </mxCell>
        <mxCell id="-H8RL6CBI1qy7asT4wwA-23" value="" style="triangle;whiteSpace=wrap;html=1;rotation=-90;" vertex="1" parent="1">
          <mxGeometry x="395" y="145" width="20" height="30" as="geometry" />
        </mxCell>
        <mxCell id="-H8RL6CBI1qy7asT4wwA-24" value="" style="endArrow=none;html=1;rounded=0;" edge="1" parent="1">
          <mxGeometry width="50" height="50" relative="1" as="geometry">
            <mxPoint x="140" y="220" as="sourcePoint" />
            <mxPoint x="612.2857230050223" y="220" as="targetPoint" />
          </mxGeometry>
        </mxCell>
        <mxCell id="-H8RL6CBI1qy7asT4wwA-25" value="" style="endArrow=none;html=1;rounded=0;entryX=0;entryY=0.5;entryDx=0;entryDy=0;" edge="1" parent="1" target="-H8RL6CBI1qy7asT4wwA-23">
          <mxGeometry width="50" height="50" relative="1" as="geometry">
            <mxPoint x="405" y="220" as="sourcePoint" />
            <mxPoint x="470" y="270" as="targetPoint" />
          </mxGeometry>
        </mxCell>
        <mxCell id="-H8RL6CBI1qy7asT4wwA-26" value="" style="endArrow=none;html=1;rounded=0;exitX=0.208;exitY=0.032;exitDx=0;exitDy=0;exitPerimeter=0;" edge="1" parent="1" source="-H8RL6CBI1qy7asT4wwA-5">
          <mxGeometry width="50" height="50" relative="1" as="geometry">
            <mxPoint x="180" y="260" as="sourcePoint" />
            <mxPoint x="140" y="220" as="targetPoint" />
          </mxGeometry>
        </mxCell>
        <mxCell id="-H8RL6CBI1qy7asT4wwA-27" value="" style="endArrow=none;html=1;rounded=0;exitX=0.208;exitY=0.032;exitDx=0;exitDy=0;exitPerimeter=0;" edge="1" parent="1">
          <mxGeometry width="50" height="50" relative="1" as="geometry">
            <mxPoint x="610" y="260" as="sourcePoint" />
            <mxPoint x="610" y="218" as="targetPoint" />
          </mxGeometry>
        </mxCell>
        <mxCell id="-H8RL6CBI1qy7asT4wwA-28" style="edgeStyle=orthogonalEdgeStyle;rounded=0;orthogonalLoop=1;jettySize=auto;html=1;entryX=0;entryY=0.5;entryDx=0;entryDy=0;" edge="1" parent="1" source="-H8RL6CBI1qy7asT4wwA-18" target="-H8RL6CBI1qy7asT4wwA-14">
          <mxGeometry relative="1" as="geometry">
            <Array as="points">
              <mxPoint x="30" y="568" />
              <mxPoint x="30" y="79" />
            </Array>
          </mxGeometry>
        </mxCell>
        <mxCell id="-H8RL6CBI1qy7asT4wwA-29" style="edgeStyle=orthogonalEdgeStyle;rounded=0;orthogonalLoop=1;jettySize=auto;html=1;entryX=1;entryY=0.5;entryDx=0;entryDy=0;" edge="1" parent="1" source="-H8RL6CBI1qy7asT4wwA-2" target="-H8RL6CBI1qy7asT4wwA-14">
          <mxGeometry relative="1" as="geometry">
            <Array as="points">
              <mxPoint x="810" y="533.0000000000001" />
              <mxPoint x="810" y="79" />
            </Array>
          </mxGeometry>
        </mxCell>
      </root>
    </mxGraphModel>
  </diagram>
</mxfile>
